{"glyphs":{"0":{"ha":881,"x_min":42,"x_max":1007,"o":"m 974 610 l 975 610 l 801 0 l 42 0 l 246 721 l 58 969 l 821 969 l 1006 724 l 974 610 m 375 251 l 611 251 l 742 717 l 507 717 l 476 610 l 475 601 l 375 251 z "},"1":{"ha":686,"x_min":42,"x_max":646,"o":"m 643 725 l 510 251 l 644 251 l 574 0 l 42 0 l 113 251 l 247 251 l 381 721 l 194 969 l 451 969 l 453 976 l 458 969 l 464 969 l 463 964 l 643 725 z "},"2":{"ha":879,"x_min":42,"x_max":1007,"o":"m 903 358 l 406 358 l 375 251 l 871 251 l 801 0 l 42 0 l 215 610 l 711 610 l 742 717 l 257 717 l 256 708 l 250 717 l 244 717 l 246 721 l 58 969 l 821 969 l 1006 725 l 974 610 l 972 601 l 903 358 z "},"3":{"ha":881,"x_min":42,"x_max":1007,"o":"m 1006 725 l 974 610 l 972 601 l 800 0 l 42 0 l 113 251 l 611 251 l 640 358 l 143 358 l 215 610 l 711 610 l 742 717 l 257 717 l 256 708 l 250 717 l 244 717 l 246 721 l 58 969 l 821 969 l 1006 725 z "},"4":{"ha":863,"x_min":40,"x_max":989,"o":"m 957 610 l 954 601 l 783 0 l 522 0 l 592 251 l 593 251 l 624 358 l 126 358 l 229 721 l 42 969 l 561 969 l 460 610 l 694 610 l 799 976 l 989 725 l 957 610 z "},"5":{"ha":883,"x_min":40,"x_max":1013,"o":"m 476 610 l 975 610 l 800 0 l 42 0 l 113 251 l 611 251 l 640 358 l 143 358 l 246 721 l 58 969 l 821 969 l 1013 717 l 507 717 l 476 610 z "},"6":{"ha":883,"x_min":42,"x_max":1013,"o":"m 1013 717 l 507 717 l 476 610 l 975 610 l 801 0 l 42 0 l 246 721 l 58 969 l 821 969 l 1013 717 m 406 358 l 375 251 l 611 251 l 640 358 l 406 358 z "},"7":{"ha":863,"x_min":42,"x_max":989,"o":"m 989 725 l 954 601 l 783 0 l 522 0 l 593 251 l 725 717 l 240 717 l 238 708 l 232 717 l 228 717 l 229 721 l 42 969 l 804 969 l 989 725 z "},"8":{"ha":881,"x_min":42,"x_max":1007,"o":"m 1006 725 l 974 610 l 972 601 l 801 0 l 42 0 l 246 721 l 58 969 l 821 969 l 1006 725 m 476 610 l 711 610 l 742 717 l 507 717 l 476 610 m 375 251 l 611 251 l 642 358 l 406 358 l 375 251 z "},"9":{"ha":881,"x_min":42,"x_max":1007,"o":"m 1006 725 l 974 610 l 972 601 l 801 0 l 42 0 l 113 251 l 611 251 l 642 358 l 143 358 l 246 721 l 58 969 l 821 969 l 1006 725 m 476 610 l 711 610 l 742 717 l 507 717 l 476 610 z "},"\u0000":{"ha":0,"x_min":0,"x_max":0,"o":""},"\n":{"ha":0,"x_min":0,"x_max":0,"o":""},"\r":{"ha":0,"x_min":0,"x_max":0,"o":""}," ":{"ha":518,"x_min":0,"x_max":0,"o":""},"A":{"ha":842,"x_min":6,"x_max":972,"o":"m 786 969 l 971 724 l 767 0 l 504 0 l 572 239 l 336 239 l 268 0 l 7 0 l 211 721 l 24 969 l 786 969 m 707 717 l 472 717 l 408 490 l 643 490 l 707 717 z "},"B":{"ha":822,"x_min":6,"x_max":890,"o":"m 869 363 l 835 243 q 717 69 806 138 q 518 0 628 1 l 517 0 l 7 0 l 211 722 l 24 969 l 603 969 q 758 892 700 969 q 790 721 817 814 l 754 596 q 856 501 822 568 q 869 363 889 433 m 442 610 l 496 610 l 526 717 l 472 717 l 442 610 m 371 358 l 340 251 l 575 251 l 606 358 l 371 358 z "},"C":{"ha":829,"x_min":6,"x_max":978,"o":"m 340 251 l 838 251 l 765 0 l 7 0 l 211 721 l 24 969 l 786 969 l 978 717 l 472 717 l 340 251 z "},"D":{"ha":838,"x_min":7,"x_max":972,"o":"m 971 721 l 836 243 q 717 69 806 138 q 518 0 628 1 l 7 0 l 211 721 l 25 969 l 786 969 l 971 725 l 971 721 m 340 251 l 575 251 l 707 717 l 472 717 l 340 251 z "},"E":{"ha":831,"x_min":6,"x_max":978,"o":"m 340 251 l 838 251 l 765 0 l 7 0 l 211 721 l 24 969 l 786 969 l 978 717 l 472 717 l 442 610 l 792 610 l 721 358 l 371 358 l 340 251 z "},"F":{"ha":817,"x_min":6,"x_max":978,"o":"m 472 717 l 442 610 l 792 610 l 721 358 l 371 358 l 268 0 l 7 0 l 144 486 l 211 722 l 24 969 l 786 969 l 978 717 l 472 717 z "},"G":{"ha":835,"x_min":7,"x_max":978,"o":"m 869 367 l 869 363 l 836 243 q 714 68 804 136 q 513 0 624 0 l 7 0 l 211 722 l 25 969 l 788 969 l 978 717 l 472 717 l 442 611 l 679 610 q 838 532 778 610 q 869 367 894 456 m 606 358 l 371 358 l 340 251 l 575 251 l 606 358 z "},"H":{"ha":843,"x_min":7,"x_max":974,"o":"m 782 976 l 972 725 l 767 0 l 506 0 l 574 239 l 338 239 l 269 0 l 8 0 l 146 486 l 213 721 l 25 969 l 544 969 l 410 490 l 644 490 l 782 976 z "},"I":{"ha":346,"x_min":7,"x_max":476,"o":"m 294 964 l 475 725 l 269 0 l 8 0 l 146 486 l 213 722 l 26 969 l 282 969 l 285 976 l 290 969 l 296 969 l 294 964 z "},"J":{"ha":610,"x_min":-226,"x_max":740,"o":"m 558 964 l 739 725 l 533 0 l -225 0 l -154 251 l 343 251 l 410 486 l 476 722 l 290 969 l 546 969 l 549 976 l 554 969 l 560 969 l 558 964 z "},"K":{"ha":821,"x_min":7,"x_max":979,"o":"m 865 717 l 542 324 l 775 0 l 511 0 l 336 231 l 269 0 l 8 0 l 146 486 l 213 722 l 25 969 l 544 969 l 415 513 l 785 974 l 979 717 l 865 717 z "},"L":{"ha":817,"x_min":6,"x_max":839,"o":"m 340 251 l 838 251 l 767 0 l 7 0 l 144 486 l 211 722 l 24 969 l 543 969 l 340 251 z "},"M":{"ha":963,"x_min":7,"x_max":1093,"o":"m 904 974 l 1092 725 l 886 0 l 625 0 l 732 375 l 496 0 l 351 0 l 371 353 l 269 0 l 8 0 l 213 722 l 25 969 l 542 969 l 543 963 l 557 493 l 904 974 z "},"N":{"ha":844,"x_min":7,"x_max":979,"o":"m 979 717 l 969 717 l 767 0 l 508 0 l 507 6 l 400 458 l 269 0 l 8 0 l 146 486 l 213 722 l 26 969 l 542 969 l 650 511 l 782 976 l 790 967 l 979 717 z "},"O":{"ha":847,"x_min":33,"x_max":982,"o":"m 982 725 l 846 243 q 725 68 815 136 q 524 0 635 0 l 274 0 q 119 77 178 0 q 88 247 61 154 l 221 721 l 35 969 l 797 969 l 982 725 m 694 635 q 683 691 703 665 q 632 717 664 717 l 539 717 q 494 701 514 717 q 467 661 474 686 l 374 332 q 384 276 365 301 q 433 251 403 251 l 542 251 q 576 263 561 251 q 597 294 592 275 l 694 635 z "},"P":{"ha":826,"x_min":7,"x_max":972,"o":"m 971 725 l 903 482 q 836 357 883 413 q 724 271 789 301 q 586 239 658 240 l 338 239 l 269 0 l 7 0 l 144 486 l 211 722 l 25 969 l 786 969 l 971 725 m 408 490 l 643 490 l 707 717 l 472 717 l 408 490 z "},"Q":{"ha":847,"x_min":33,"x_max":982,"o":"m 846 243 q 726 69 815 138 q 528 0 638 1 l 481 -164 l 218 -164 l 265 1 q 119 78 174 4 q 88 247 61 154 l 221 721 l 35 969 l 797 969 l 982 725 l 846 243 m 374 332 q 384 276 365 301 q 433 251 403 251 l 542 251 q 576 263 561 251 q 597 294 592 275 l 694 635 q 683 691 703 665 q 632 717 664 717 l 539 717 q 494 701 514 717 q 467 661 474 686 l 374 332 z "},"R":{"ha":832,"x_min":7,"x_max":972,"o":"m 903 482 q 788 310 874 378 q 593 239 701 243 l 775 0 l 510 0 l 507 3 l 335 231 l 269 0 l 7 0 l 144 486 l 211 722 l 25 969 l 786 969 l 971 725 l 903 482 m 408 490 l 643 490 l 707 717 l 472 717 l 408 490 z "},"S":{"ha":843,"x_min":6,"x_max":978,"o":"m 442 610 l 940 610 l 765 0 l 7 0 l 78 251 l 576 251 l 606 358 l 108 358 l 211 721 l 24 969 l 786 969 l 978 717 l 472 717 l 442 610 z "},"T":{"ha":825,"x_min":33,"x_max":988,"o":"m 797 969 l 988 717 l 640 717 l 438 0 l 175 0 l 313 486 l 378 717 l 233 717 l 231 708 l 225 717 l 221 717 l 221 721 l 35 969 l 797 969 z "},"U":{"ha":843,"x_min":7,"x_max":974,"o":"m 576 251 l 782 976 l 972 725 l 768 0 l 8 0 l 146 486 l 213 722 l 25 969 l 544 969 l 342 251 l 576 251 z "},"V":{"ha":825,"x_min":33,"x_max":983,"o":"m 719 725 l 790 976 l 982 724 l 526 0 l 268 0 l 222 719 l 35 969 l 554 969 l 483 722 l 506 385 l 719 725 z "},"W":{"ha":1219,"x_min":33,"x_max":1350,"o":"m 1160 976 l 1350 725 l 1144 0 l 886 0 l 885 6 l 781 556 l 526 0 l 268 0 l 222 719 l 35 969 l 554 969 l 483 722 l 497 511 l 706 969 l 964 969 l 1042 561 l 1160 976 z "},"X":{"ha":828,"x_min":-1,"x_max":974,"o":"m 622 364 l 668 251 l 839 251 l 767 0 l 510 0 l 507 4 l 438 174 l 267 0 l 0 0 l 358 367 l 214 718 l 25 969 l 544 969 l 474 724 l 543 556 l 710 725 l 782 976 l 974 722 l 969 718 l 622 364 z "},"Y":{"ha":843,"x_min":7,"x_max":974,"o":"m 782 976 l 972 725 l 767 0 l 8 0 l 79 251 l 578 251 l 608 358 l 110 358 l 213 721 l 25 969 l 544 969 l 443 610 l 678 610 l 711 725 l 782 976 z "},"Z":{"ha":826,"x_min":6,"x_max":974,"o":"m 786 969 l 974 722 l 389 251 l 836 251 l 767 0 l 7 0 l 78 249 l 79 250 l 658 717 l 222 717 l 221 708 l 215 717 l 210 717 l 211 721 l 24 969 l 786 969 z "}," ":{"ha":518,"x_min":0,"x_max":0,"o":""},"­":{"ha":0,"x_min":0,"x_max":0,"o":""}}}
